# xmcd CD database file
#
# Track frame offsets:
#	150
#	16247
#	30658
#	47329
#	59259
#	73729
#	87040
#	105481
#	121773
#	137767
#	151696
#	168421
#	183041
#
# Disc length: 2615 seconds
#
# Revision: 1
# Processed by: cddbd v1.5.2PL0 Copyright (c) Steve Scherf et al.
# Submitted via: CDex 1.70beta2
#
DISCID=930a350d
DTITLE=18 Kilates - Exitos 2007
DYEAR=1900
DGENRE=Salsa
TTITLE0=Con la Misma Cancion
TTITLE1=Mia
TTITLE2=Me Olvide de Ti
TTITLE3=Yo te Pido Amor
TTITLE4=Tú
TTITLE5=Volver El Tiempo Atrás
TTITLE6=Hay AMor
TTITLE7=Devuelveme el Alma
TTITLE8=Quizas si Quizas no
TTITLE9=Si Esto no es Amor
TTITLE10=Te Juro Que te Amo
TTITLE11=El Último Beso
TTITLE12=Ya Yo Me Olvide De Ti
EXTD=
EXTT0=
EXTT1=
EXTT2=
EXTT3=
EXTT4=
EXTT5=
EXTT6=
EXTT7=
EXTT8=
EXTT9=
EXTT10=
EXTT11=
EXTT12=
PLAYORDER=
